# Mesh To File v1.1.1
# http://pinwheel.studio
o test
# Vertices list
v -0.385 0.0064 0.14
v -0.1800217 0.006399991 0.06244063
v -0.3843994 0.005697057 0.1415872
v -0.1794211 0.005697047 0.06402786
v -0.3841507 0.004 0.1422447
v -0.1400774 0.00639999 0.04732656
v -0.1791724 0.00399999 0.06468531
v -0.3843994 0.002302944 0.1415872
v -0.1394768 0.005697046 0.0489138
v -0.1057395 0.006399989 0.03433386
v -0.1794211 0.002302934 0.06402786
v -0.385 0.0016 0.14
v -0.1051389 0.005697045 0.03592109
v -0.07700809 0.006399988 0.0234625
v -0.139228 0.003999989 0.04957125
v -0.1800217 0.001599991 0.06244063
v -0.3856006 0.002302944 0.1384128
v -0.07640751 0.005697045 0.02504974
v -0.05388309 0.006399988 0.01471251
v -0.1394768 0.002302933 0.0489138
v -0.1048902 0.003999988 0.03657855
v -0.1806223 0.002302935 0.0608534
v -0.3858493 0.004 0.1377553
v -0.05328251 0.005697045 0.01629974
v -0.03636452 0.006399989 0.008083859
v -0.07615875 0.003999988 0.02570719
v -0.1400774 0.001599989 0.04732656
v -0.1051389 0.002302932 0.03592109
v -0.180871 0.003999991 0.06019594
v -0.3856006 0.005697057 0.1384128
v -0.03576395 0.005697045 0.009671092
v -0.02445239 0.00639999 0.003576566
v -0.05303375 0.003999988 0.01695719
v -0.07640751 0.002302932 0.02504974
v -0.140678 0.002302933 0.04573933
v -0.1057395 0.001599988 0.03433386
v -0.1806223 0.005697048 0.0608534
v -0.385 0.0064 0.14
v -0.1800217 0.006399991 0.06244063
v -0.02385182 0.005697046 0.0051638
v -0.01814669 0.006399991 0.001190629
v -0.03551518 0.003999988 0.01032855
v -0.05328251 0.002302932 0.01629974
v -0.07700809 0.001599988 0.0234625
v -0.1409267 0.003999989 0.04508188
v -0.140678 0.005697046 0.04573933
v -0.1400774 0.00639999 0.04732656
v -0.1063401 0.002302933 0.03274662
v -0.1065889 0.003999989 0.03208917
v -0.1063401 0.005697045 0.03274662
v -0.1057395 0.006399989 0.03433386
v -0.07760867 0.002302932 0.02187527
v -0.05388309 0.001599988 0.01471251
v -0.07785743 0.003999988 0.02121782
v -0.07760867 0.005697045 0.02187527
v -0.07700809 0.006399988 0.0234625
v -0.05448367 0.002302932 0.01312527
v -0.03576395 0.002302932 0.009671092
v -0.05473243 0.003999988 0.01246782
v -0.05448367 0.005697045 0.01312527
v -0.05388309 0.006399988 0.01471251
v -0.03636452 0.001599988 0.008083859
v -0.02360305 0.003999989 0.005821254
v -0.0369651 0.002302933 0.006496625
v -0.03721386 0.003999989 0.005839171
v -0.03696509 0.005697045 0.006496625
v -0.03636452 0.006399989 0.008083859
v -0.02385182 0.002302933 0.0051638
v -0.01754612 0.005697047 0.002777862
v -0.015 0.0064 1.003942E-10
v -0.01439943 0.005697057 0.001587234
v -0.01729735 0.00399999 0.003435316
v -0.01415066 0.004 0.002244687
v -0.01754612 0.002302934 0.002777862
v -0.01439943 0.002302944 0.001587233
v -0.02445239 0.001599989 0.003576566
v -0.01814669 0.001599991 0.001190628
v -0.015 0.0016 -2.96631E-10
v -0.02505296 0.002302933 0.001989332
v -0.01874727 0.002302935 -0.0003966055
v -0.01560058 0.002302944 -0.001587234
v -0.02530173 0.003999989 0.001331879
v -0.01899603 0.003999991 -0.001054059
v -0.01584934 0.004 -0.002244687
v -0.02505296 0.005697046 0.001989333
v -0.02445239 0.00639999 0.003576567
v -0.01874727 0.005697048 -0.0003966045
v -0.01560057 0.005697057 -0.001587233
v -0.01814669 0.006399991 0.001190629
v -0.015 0.0064 4.928677E-10
# Texture coordinates list
vt 0 0 0
vt 0 3.323973 0
vt 0.125 0 0
vt 0.125 3.323973 0
vt 0.25 0 0
vt 0 3.971718 0
vt 0.25 3.323973 0
vt 0.375 0 0
vt 0.125 3.971718 0
vt 0 4.528549 0
vt 0.375 3.323973 0
vt 0.5 0 0
vt 0.125 4.528549 0
vt 0 4.994464 0
vt 0.25 3.971718 0
vt 0.5 3.323973 0
vt 0.625 0 0
vt 0.125 4.994464 0
vt 0 5.369464 0
vt 0.375 3.971718 0
vt 0.25 4.528549 0
vt 0.625 3.323973 0
vt 0.75 0 0
vt 0.125 5.369464 0
vt 0 5.653549 0
vt 0.25 4.994464 0
vt 0.5 3.971718 0
vt 0.375 4.528549 0
vt 0.75 3.323973 0
vt 0.875 0 0
vt 0.125 5.653549 0
vt 0 5.846718 0
vt 0.25 5.369464 0
vt 0.375 4.994464 0
vt 0.625 3.971718 0
vt 0.5 4.528549 0
vt 0.875 3.323973 0
vt 1 0 0
vt 1 3.323973 0
vt 0.125 5.846718 0
vt 0 5.948973 0
vt 0.25 5.653549 0
vt 0.375 5.369464 0
vt 0.5 4.994464 0
vt 0.75 3.971718 0
vt 0.875 3.971718 0
vt 1 3.971718 0
vt 0.625 4.528549 0
vt 0.75 4.528549 0
vt 0.875 4.528549 0
vt 1 4.528549 0
vt 0.625 4.994464 0
vt 0.5 5.369464 0
vt 0.75 4.994464 0
vt 0.875 4.994464 0
vt 1 4.994464 0
vt 0.625 5.369464 0
vt 0.375 5.653549 0
vt 0.75 5.369464 0
vt 0.875 5.369464 0
vt 1 5.369464 0
vt 0.5 5.653549 0
vt 0.25 5.846718 0
vt 0.625 5.653549 0
vt 0.75 5.653549 0
vt 0.875 5.653549 0
vt 1 5.653549 0
vt 0.375 5.846718 0
vt 0.125 5.948973 0
vt 0 6 0
vt 0.125 6 0
vt 0.25 5.948973 0
vt 0.25 6 0
vt 0.375 5.948973 0
vt 0.375 6 0
vt 0.5 5.846718 0
vt 0.5 5.948973 0
vt 0.5 6 0
vt 0.625 5.846718 0
vt 0.625 5.948973 0
vt 0.625 6 0
vt 0.75 5.846718 0
vt 0.75 5.948973 0
vt 0.75 6 0
vt 0.875 5.846718 0
vt 1 5.846718 0
vt 0.875 5.948973 0
vt 0.875 6 0
vt 1 5.948973 0
vt 1 6 0
# Normal vectors list
vn -1.453276E-10 0.0024 1.003942E-10
vn -1.453276E-10 0.0024 1.003942E-10
vn -0.0006005749 0.001697056 0.001587234
vn -0.0006005749 0.001697056 0.001587234
vn -0.000849341 -2.502349E-10 0.002244687
vn -1.453276E-10 0.0024 1.003942E-10
vn -0.0008493412 -2.50235E-10 0.002244687
vn -0.0006005747 -0.001697056 0.001587233
vn -0.0006005749 0.001697056 0.001587234
vn -1.453276E-10 0.0024 1.003942E-10
vn -0.0006005748 -0.001697057 0.001587234
vn 2.195794E-10 -0.0024 -2.96631E-10
vn -0.0006005749 0.001697056 0.001587234
vn -1.453276E-10 0.0024 1.003942E-10
vn -0.0008493412 -2.50235E-10 0.002244687
vn 2.195794E-10 -0.0024 -2.96631E-10
vn 0.000600575 -0.001697056 -0.001587234
vn -0.0006005749 0.001697056 0.001587234
vn -1.453276E-10 0.0024 1.003942E-10
vn -0.0006005748 -0.001697057 0.001587234
vn -0.0008493412 -2.50235E-10 0.002244687
vn 0.0006005751 -0.001697056 -0.001587234
vn 0.000849341 1.739473E-10 -0.002244687
vn -0.0006005749 0.001697056 0.001587234
vn -1.453276E-10 0.0024 1.003942E-10
vn -0.0008493412 -2.50235E-10 0.002244687
vn 2.195794E-10 -0.0024 -2.96631E-10
vn -0.0006005748 -0.001697057 0.001587234
vn 0.0008493412 1.739473E-10 -0.002244687
vn 0.0006005745 0.001697057 -0.001587233
vn -0.0006005749 0.001697056 0.001587234
vn -1.453276E-10 0.0024 1.003942E-10
vn -0.0008493412 -2.50235E-10 0.002244687
vn -0.0006005748 -0.001697057 0.001587234
vn 0.0006005751 -0.001697056 -0.001587234
vn 2.195794E-10 -0.0024 -2.96631E-10
vn 0.0006005745 0.001697057 -0.001587233
vn -2.938311E-10 0.0024 4.928677E-10
vn -2.938312E-10 0.0024 4.928678E-10
vn -0.0006005749 0.001697056 0.001587234
vn -1.453276E-10 0.0024 1.003942E-10
vn -0.0008493412 -2.50235E-10 0.002244687
vn -0.0006005748 -0.001697057 0.001587234
vn 2.195794E-10 -0.0024 -2.96631E-10
vn 0.0008493412 1.739473E-10 -0.002244687
vn 0.0006005745 0.001697057 -0.001587233
vn -2.938312E-10 0.0024 4.928678E-10
vn 0.0006005751 -0.001697056 -0.001587234
vn 0.0008493412 1.739473E-10 -0.002244687
vn 0.0006005745 0.001697057 -0.001587233
vn -2.938312E-10 0.0024 4.928678E-10
vn 0.0006005751 -0.001697056 -0.001587234
vn 2.195794E-10 -0.0024 -2.96631E-10
vn 0.0008493412 1.739473E-10 -0.002244687
vn 0.0006005745 0.001697057 -0.001587233
vn -2.938312E-10 0.0024 4.928678E-10
vn 0.0006005751 -0.001697056 -0.001587234
vn -0.0006005748 -0.001697057 0.001587234
vn 0.0008493412 1.739473E-10 -0.002244687
vn 0.0006005745 0.001697057 -0.001587233
vn -2.938312E-10 0.0024 4.928678E-10
vn 2.195794E-10 -0.0024 -2.96631E-10
vn -0.0008493412 -2.50235E-10 0.002244687
vn 0.0006005751 -0.001697056 -0.001587234
vn 0.0008493412 1.739473E-10 -0.002244687
vn 0.0006005745 0.001697057 -0.001587233
vn -2.938312E-10 0.0024 4.928678E-10
vn -0.0006005748 -0.001697057 0.001587234
vn -0.0006005749 0.001697056 0.001587234
vn -1.453276E-10 0.0024 1.003942E-10
vn -0.0006005749 0.001697056 0.001587234
vn -0.0008493412 -2.50235E-10 0.002244687
vn -0.000849341 -2.502349E-10 0.002244687
vn -0.0006005748 -0.001697057 0.001587234
vn -0.0006005747 -0.001697056 0.001587233
vn 2.195794E-10 -0.0024 -2.96631E-10
vn 2.195794E-10 -0.0024 -2.96631E-10
vn 2.195794E-10 -0.0024 -2.96631E-10
vn 0.0006005751 -0.001697056 -0.001587234
vn 0.0006005751 -0.001697056 -0.001587234
vn 0.000600575 -0.001697056 -0.001587234
vn 0.0008493412 1.739473E-10 -0.002244687
vn 0.0008493412 1.739473E-10 -0.002244687
vn 0.000849341 1.739473E-10 -0.002244687
vn 0.0006005745 0.001697057 -0.001587233
vn -2.938312E-10 0.0024 4.928678E-10
vn 0.0006005745 0.001697057 -0.001587233
vn 0.0006005745 0.001697057 -0.001587233
vn -2.938312E-10 0.0024 4.928678E-10
vn -2.938311E-10 0.0024 4.928677E-10
# Faces list
f 3/3/3 2/2/2 1/1/1
f 4/4/4 2/2/2 3/3/3
f 5/5/5 4/4/4 3/3/3
f 4/4/4 6/6/6 2/2/2
f 7/7/7 4/4/4 5/5/5
f 8/8/8 7/7/7 5/5/5
f 9/9/9 6/6/6 4/4/4
f 7/7/7 9/9/9 4/4/4
f 9/9/9 10/10/10 6/6/6
f 11/11/11 7/7/7 8/8/8
f 12/12/12 11/11/11 8/8/8
f 13/13/13 10/10/10 9/9/9
f 13/13/13 14/14/14 10/10/10
f 15/15/15 9/9/9 7/7/7
f 11/11/11 15/15/15 7/7/7
f 15/15/15 13/13/13 9/9/9
f 16/16/16 11/11/11 12/12/12
f 17/17/17 16/16/16 12/12/12
f 18/18/18 14/14/14 13/13/13
f 18/18/18 19/19/19 14/14/14
f 20/20/20 15/15/15 11/11/11
f 16/16/16 20/20/20 11/11/11
f 21/21/21 13/13/13 15/15/15
f 21/21/21 18/18/18 13/13/13
f 20/20/20 21/21/21 15/15/15
f 22/22/22 16/16/16 17/17/17
f 23/23/23 22/22/22 17/17/17
f 24/24/24 19/19/19 18/18/18
f 24/24/24 25/25/25 19/19/19
f 26/26/26 18/18/18 21/21/21
f 26/26/26 24/24/24 18/18/18
f 27/27/27 20/20/20 16/16/16
f 22/22/22 27/27/27 16/16/16
f 28/28/28 21/21/21 20/20/20
f 28/28/28 26/26/26 21/21/21
f 27/27/27 28/28/28 20/20/20
f 29/29/29 22/22/22 23/23/23
f 30/30/30 29/29/29 23/23/23
f 31/31/31 25/25/25 24/24/24
f 31/31/31 32/32/32 25/25/25
f 33/33/33 24/24/24 26/26/26
f 33/33/33 31/31/31 24/24/24
f 34/34/34 26/26/26 28/28/28
f 34/34/34 33/33/33 26/26/26
f 35/35/35 27/27/27 22/22/22
f 29/29/29 35/35/35 22/22/22
f 36/36/36 28/28/28 27/27/27
f 36/36/36 34/34/34 28/28/28
f 35/35/35 36/36/36 27/27/27
f 37/37/37 29/29/29 30/30/30
f 38/38/38 37/37/37 30/30/30
f 39/39/39 37/37/37 38/38/38
f 40/40/40 32/32/32 31/31/31
f 40/40/40 41/41/41 32/32/32
f 42/42/42 31/31/31 33/33/33
f 42/42/42 40/40/40 31/31/31
f 43/43/43 33/33/33 34/34/34
f 43/43/43 42/42/42 33/33/33
f 44/44/44 34/34/34 36/36/36
f 44/44/44 43/43/43 34/34/34
f 45/45/45 35/35/35 29/29/29
f 37/37/37 45/45/45 29/29/29
f 39/39/39 46/46/46 37/37/37
f 46/46/46 45/45/45 37/37/37
f 47/47/47 46/46/46 39/39/39
f 48/48/48 36/36/36 35/35/35
f 45/45/45 48/48/48 35/35/35
f 48/48/48 44/44/44 36/36/36
f 46/46/46 49/49/49 45/45/45
f 49/49/49 48/48/48 45/45/45
f 47/47/47 50/50/50 46/46/46
f 50/50/50 49/49/49 46/46/46
f 51/51/51 50/50/50 47/47/47
f 52/52/52 44/44/44 48/48/48
f 49/49/49 52/52/52 48/48/48
f 53/53/53 43/43/43 44/44/44
f 52/52/52 53/53/53 44/44/44
f 50/50/50 54/54/54 49/49/49
f 54/54/54 52/52/52 49/49/49
f 51/51/51 55/55/55 50/50/50
f 55/55/55 54/54/54 50/50/50
f 56/56/56 55/55/55 51/51/51
f 54/54/54 57/57/57 52/52/52
f 57/57/57 53/53/53 52/52/52
f 53/53/53 58/58/58 43/43/43
f 58/58/58 42/42/42 43/43/43
f 55/55/55 59/59/59 54/54/54
f 59/59/59 57/57/57 54/54/54
f 56/56/56 60/60/60 55/55/55
f 60/60/60 59/59/59 55/55/55
f 61/61/61 60/60/60 56/56/56
f 57/57/57 62/62/62 53/53/53
f 62/62/62 58/58/58 53/53/53
f 58/58/58 63/63/63 42/42/42
f 63/63/63 40/40/40 42/42/42
f 59/59/59 64/64/64 57/57/57
f 64/64/64 62/62/62 57/57/57
f 60/60/60 65/65/65 59/59/59
f 65/65/65 64/64/64 59/59/59
f 61/61/61 66/66/66 60/60/60
f 66/66/66 65/65/65 60/60/60
f 67/67/67 66/66/66 61/61/61
f 62/62/62 68/68/68 58/58/58
f 68/68/68 63/63/63 58/58/58
f 63/63/63 69/69/69 40/40/40
f 69/69/69 41/41/41 40/40/40
f 69/69/69 70/70/70 41/41/41
f 71/71/71 70/70/70 69/69/69
f 72/72/72 69/69/69 63/63/63
f 72/72/72 71/71/71 69/69/69
f 68/68/68 72/72/72 63/63/63
f 73/73/73 71/71/71 72/72/72
f 74/74/74 73/73/73 72/72/72
f 74/74/74 72/72/72 68/68/68
f 75/75/75 73/73/73 74/74/74
f 76/76/76 68/68/68 62/62/62
f 76/76/76 74/74/74 68/68/68
f 64/64/64 76/76/76 62/62/62
f 77/77/77 75/75/75 74/74/74
f 77/77/77 74/74/74 76/76/76
f 78/78/78 75/75/75 77/77/77
f 79/79/79 76/76/76 64/64/64
f 79/79/79 77/77/77 76/76/76
f 65/65/65 79/79/79 64/64/64
f 80/80/80 78/78/78 77/77/77
f 80/80/80 77/77/77 79/79/79
f 81/81/81 78/78/78 80/80/80
f 82/82/82 79/79/79 65/65/65
f 82/82/82 80/80/80 79/79/79
f 66/66/66 82/82/82 65/65/65
f 83/83/83 81/81/81 80/80/80
f 83/83/83 80/80/80 82/82/82
f 84/84/84 81/81/81 83/83/83
f 85/85/85 82/82/82 66/66/66
f 85/85/85 83/83/83 82/82/82
f 67/67/67 85/85/85 66/66/66
f 86/86/86 85/85/85 67/67/67
f 87/87/87 84/84/84 83/83/83
f 87/87/87 83/83/83 85/85/85
f 86/86/86 87/87/87 85/85/85
f 88/88/88 84/84/84 87/87/87
f 89/89/89 87/87/87 86/86/86
f 89/89/89 88/88/88 87/87/87
f 90/90/90 88/88/88 89/89/89
